<svg width="1200" height="720" viewBox="0 0 1200 720" fill="none" xmlns="http://www.w3.org/2000/svg">
  <rect width="1200" height="720" rx="28" fill="#020617"/>
  <rect x="38" y="38" width="1124" height="644" rx="24" fill="#0F172A" stroke="#334155"/>
  <rect x="74" y="86" width="298" height="546" rx="22" fill="#111827"/>
  <rect x="406" y="86" width="330" height="214" rx="22" fill="#1E293B"/>
  <rect x="768" y="86" width="320" height="214" rx="22" fill="#312E81"/>
  <rect x="406" y="332" width="682" height="300" rx="22" fill="#111827" stroke="#334155"/>
  <text x="96" y="140" fill="#F8FAFC" font-size="34" font-family="Arial">Incident Management API</text>
  <text x="96" y="198" fill="#94A3B8" font-size="22" font-family="Arial">Ticket creation</text>
  <text x="96" y="238" fill="#94A3B8" font-size="22" font-family="Arial">Status changes</text>
  <text x="96" y="278" fill="#94A3B8" font-size="22" font-family="Arial">Role visibility rules</text>
  <text x="96" y="318" fill="#94A3B8" font-size="22" font-family="Arial">Async notifications</text>
  <text x="96" y="358" fill="#94A3B8" font-size="22" font-family="Arial">Health checks</text>
  <text x="96" y="398" fill="#94A3B8" font-size="22" font-family="Arial">Monitoring notes</text>
  <text x="432" y="140" fill="#E2E8F0" font-size="28" font-family="Arial">FastAPI service</text>
  <text x="432" y="190" fill="#93C5FD" font-size="18" font-family="Courier New">POST /auth/login</text>
  <text x="432" y="222" fill="#93C5FD" font-size="18" font-family="Courier New">POST /tickets</text>
  <text x="432" y="254" fill="#93C5FD" font-size="18" font-family="Courier New">PATCH /tickets/{id}/status</text>
  <text x="794" y="140" fill="#E0E7FF" font-size="28" font-family="Arial">Redis + Celery</text>
  <text x="794" y="190" fill="#C7D2FE" font-size="18" font-family="Arial">Queued notifications for create / assign / status</text>
  <text x="794" y="222" fill="#C7D2FE" font-size="18" font-family="Arial">Worker mode visible in readiness checks</text>
  <text x="432" y="388" fill="#E2E8F0" font-size="28" font-family="Arial">Operational confidence</text>
  <text x="432" y="442" fill="#CBD5E1" font-size="20" font-family="Arial">1. Seed demo users on startup for quick review</text>
  <text x="432" y="480" fill="#CBD5E1" font-size="20" font-family="Arial">2. Enforce visibility by role and ticket scope</text>
  <text x="432" y="518" fill="#CBD5E1" font-size="20" font-family="Arial">3. Track timeline events for auditability</text>
  <text x="432" y="556" fill="#CBD5E1" font-size="20" font-family="Arial">4. Report DB and Redis readiness separately</text>
</svg>

